<svg width="20" height="19" viewBox="0 0 20 19" fill="none" xmlns="http://www.w3.org/2000/svg">
<g id="Insta">
<path id="Vector" d="M13.8655 1.64564C14.9461 1.64875 15.9816 2.06352 16.7458 2.79938C17.5099 3.53523 17.9407 4.53236 17.9439 5.57301V13.4269C17.9407 14.4675 17.5099 15.4647 16.7458 16.2005C15.9816 16.9364 14.9461 17.3512 13.8655 17.3543H5.70952C4.62885 17.3512 3.59336 16.9364 2.82921 16.2005C2.06506 15.4647 1.63433 14.4675 1.6311 13.4269V5.57301C1.63433 4.53236 2.06506 3.53523 2.82921 2.79938C3.59336 2.06352 4.62885 1.64875 5.70952 1.64564H13.8655ZM13.8655 0.0749512H5.70952C2.56922 0.0749512 0 2.54901 0 5.57301V13.4269C0 16.4509 2.56922 18.925 5.70952 18.925H13.8655C17.0058 18.925 19.575 16.4509 19.575 13.4269V5.57301C19.575 2.54901 17.0058 0.0749512 13.8655 0.0749512Z" fill="#1F2732"/>
<path id="Vector_2" d="M15.0897 5.57183C14.8477 5.57183 14.6112 5.50273 14.41 5.37328C14.2088 5.24382 14.052 5.05982 13.9594 4.84455C13.8668 4.62928 13.8426 4.39239 13.8898 4.16386C13.937 3.93533 14.0535 3.72541 14.2246 3.56064C14.3957 3.39588 14.6137 3.28367 14.851 3.23821C15.0883 3.19276 15.3343 3.21609 15.5579 3.30526C15.7814 3.39443 15.9725 3.54543 16.1069 3.73917C16.2414 3.93291 16.3131 4.16069 16.3131 4.3937C16.3135 4.54851 16.2821 4.70186 16.2207 4.84494C16.1593 4.98803 16.0692 5.11804 15.9556 5.2275C15.8419 5.33697 15.7069 5.42374 15.5583 5.48283C15.4097 5.54191 15.2505 5.57216 15.0897 5.57183ZM9.78828 6.35696C10.4336 6.35696 11.0644 6.54123 11.6009 6.88645C12.1374 7.23168 12.5556 7.72236 12.8026 8.29645C13.0495 8.87054 13.1141 9.50225 12.9882 10.1117C12.8623 10.7212 12.5516 11.281 12.0953 11.7204C11.639 12.1598 11.0577 12.459 10.4248 12.5802C9.7919 12.7014 9.13589 12.6392 8.53972 12.4014C7.94355 12.1636 7.434 11.7609 7.07549 11.2443C6.71699 10.7276 6.52564 10.1202 6.52564 9.49877C6.52656 8.66578 6.8706 7.86717 7.48227 7.27816C8.09393 6.68915 8.92326 6.35785 9.78828 6.35696ZM9.78828 4.78627C8.82039 4.78627 7.87423 5.06265 7.06946 5.58047C6.26469 6.09829 5.63744 6.83428 5.26705 7.69537C4.89665 8.55647 4.79974 9.504 4.98857 10.4181C5.17739 11.3323 5.64348 12.172 6.32788 12.831C7.01228 13.4901 7.88426 13.9389 8.83356 14.1207C9.78285 14.3026 10.7668 14.2092 11.661 13.8526C12.5553 13.4959 13.3196 12.8919 13.8573 12.1169C14.395 11.3419 14.682 10.4308 14.682 9.49877C14.682 8.24894 14.1664 7.05029 13.2487 6.16653C12.3309 5.28276 11.0862 4.78627 9.78828 4.78627Z" fill="#1F2732"/>
</g>
</svg>
