<svg width="22" height="17" viewBox="0 0 22 17" fill="none" xmlns="http://www.w3.org/2000/svg">
<g id="Twiter">
<path id="Vector" d="M21.1231 2.09869C20.3364 2.44053 19.504 2.66574 18.6522 2.76721C19.5474 2.24305 20.2205 1.41032 20.5455 0.425201C19.6992 0.920078 18.7748 1.26731 17.812 1.45201C17.4065 1.0271 16.9189 0.689072 16.3788 0.458472C15.8386 0.227872 15.2572 0.109518 14.6699 0.110603C12.2921 0.110603 10.3678 2.00693 10.3678 4.34457C10.3661 4.66973 10.4034 4.99392 10.4788 5.31021C8.77369 5.23028 7.10406 4.79531 5.57671 4.03314C4.04936 3.27097 2.69792 2.19838 1.60885 0.88399C1.22678 1.52809 1.02472 2.263 1.02379 3.0119C1.02379 4.48002 1.78975 5.77774 2.94633 6.53802C2.26109 6.52176 1.58988 6.34039 0.989705 6.00932V6.06175C0.989705 8.11538 2.47531 9.82382 4.44155 10.2127C4.0718 10.3113 3.69078 10.3612 3.30812 10.3613C3.03659 10.3617 2.76569 10.3354 2.49934 10.2826C3.04595 11.9648 4.63686 13.1883 6.52139 13.2232C4.99007 14.4034 3.11002 15.0412 1.17672 15.0365C0.83355 15.036 0.490702 15.0156 0.149902 14.9754C2.11666 16.2312 4.40285 16.8955 6.73637 16.8892C14.6607 16.8892 18.99 10.4355 18.99 4.83831C18.99 4.6548 18.9852 4.47128 18.9764 4.29214C19.8167 3.69443 20.5436 2.95165 21.1231 2.09869Z" fill="#1F2732"/>
</g>
</svg>
